<svg xmlns="http://www.w3.org/2000/svg" width="100%" height="100%" viewBox="0 0 24 24"><path fill="currentColor" d="M12 22q-2.075 0-3.9-.788t-3.175-2.137q-1.35-1.35-2.137-3.175T2 12q0-2.075.788-3.9t2.137-3.175q1.35-1.35 3.175-2.137T12 2q2.075 0 3.9.788t3.175 2.137q1.35 1.35 2.138 3.175T22 12q0 2.075-.788 3.9t-2.137 3.175q-1.35 1.35-3.175 2.138T12 22m0-2q1.35 0 2.6-.437t2.3-1.263L5.7 7.1q-.825 1.05-1.263 2.3T4 12q0 3.35 2.325 5.675T12 20m6.3-3.1q.825-1.05 1.263-2.3T20 12q0-3.35-2.325-5.675T12 4q-1.35 0-2.6.437T7.1 5.7z"/></svg>