<svg width="100%" height="100%" viewBox="0 0 187.156 39.965" xmlns="http://www.w3.org/2000/svg"><g id="svgGroup" stroke-linecap="round" fill-rule="evenodd" font-size="9pt" style="stroke:var(--logo-color);stroke-width:0.5mm;fill:var(--logo-fill-color);"><path d="M 17.953 1.219 L 18.105 1.93 Q 18.207 2.285 18.435 2.412 A 1.494 1.494 0 0 0 18.558 2.473 Q 18.689 2.531 18.79 2.538 A 0.39 0.39 0 0 0 18.816 2.539 Q 19.347 2.662 19.764 2.801 A 6.777 6.777 0 0 1 19.959 2.869 A 3.958 3.958 0 0 0 20.785 3.073 A 4.567 4.567 0 0 0 21 3.098 Q 21.203 3.402 21.381 3.707 A 4.729 4.729 0 0 0 21.68 4.16 A 4.196 4.196 0 0 0 21.762 4.266 A 23.786 23.786 0 0 1 22.792 5.89 A 18.649 18.649 0 0 1 23.437 7.109 A 3.267 3.267 0 0 1 23.767 8.544 Q 23.767 9.009 23.64 9.499 A 4.867 4.867 0 0 1 23.437 10.105 L 23.488 10.664 A 1.742 1.742 0 0 1 23.627 10.892 Q 23.742 11.12 23.742 11.324 Q 23.742 11.629 23.64 12.188 A 11.021 11.021 0 0 0 23.596 12.613 A 14.125 14.125 0 0 0 23.564 13.076 A 2.652 2.652 0 0 0 23.561 13.216 Q 23.561 13.467 23.607 13.737 A 3.979 3.979 0 0 0 23.691 14.117 L 24.047 14.523 A 4.102 4.102 0 0 0 24.797 14.815 A 3.112 3.112 0 0 0 25.621 14.93 A 3.879 3.879 0 0 0 26.783 14.76 A 3.455 3.455 0 0 0 27.449 14.473 A 31.394 31.394 0 0 0 28.588 13.801 A 27.076 27.076 0 0 0 28.973 13.559 Q 29.531 13.152 30.014 12.898 A 4.199 4.199 0 0 1 30.548 12.661 A 3.34 3.34 0 0 1 30.953 12.543 A 87.124 87.124 0 0 1 31.967 11.592 Q 32.453 11.144 32.894 10.753 A 48.415 48.415 0 0 1 32.908 10.74 A 97.549 97.549 0 0 1 34.641 9.242 A 106.735 106.735 0 0 1 34.762 9.141 Q 36.59 7.668 38.316 5.967 A 11.614 11.614 0 0 0 40.431 3.089 A 14.274 14.274 0 0 0 41.058 1.727 A 2.284 2.284 0 0 1 42.196 1.374 A 2.761 2.761 0 0 1 42.328 1.371 A 3.813 3.813 0 0 1 43.594 1.593 A 4.394 4.394 0 0 1 43.75 1.65 A 17.437 17.437 0 0 1 45.172 2.285 Q 45.299 2.37 45.408 2.419 A 1.071 1.071 0 0 0 45.451 2.437 A 1.212 1.212 0 0 1 45.567 2.492 Q 45.625 2.522 45.688 2.562 A 2.247 2.247 0 0 1 45.73 2.59 A 1.326 1.326 0 0 0 45.998 3.386 A 1.857 1.857 0 0 0 46.187 3.605 A 7.092 7.092 0 0 0 46.291 3.687 Q 46.463 3.82 46.543 3.859 L 46.746 3.961 Q 47.152 4.215 47.432 4.418 A 1.258 1.258 0 0 1 47.79 4.828 A 1.574 1.574 0 0 1 47.863 4.977 A 4.548 4.548 0 0 0 48.493 6.224 A 3.904 3.904 0 0 0 49.387 7.109 Q 49.285 7.668 49.437 8.201 A 10.761 10.761 0 0 0 49.793 9.242 A 2.603 2.603 0 0 1 49.881 9.438 A 1.91 1.91 0 0 1 49.945 9.623 A 3.149 3.149 0 0 0 49.99 9.765 Q 50.034 9.895 50.098 10.055 L 48.98 9.953 L 49.133 11.07 A 3.624 3.624 0 0 1 49.186 11.664 Q 49.19 12.023 49.129 12.413 A 5.91 5.91 0 0 1 49.006 13 Q 48.726 14.066 48.371 14.676 Q 48.473 16.199 48.473 17.088 A 13.68 13.68 0 0 1 48.437 18.098 A 10.994 10.994 0 0 1 48.371 18.738 A 7.912 7.912 0 0 1 48.083 20.056 A 7.271 7.271 0 0 1 48.041 20.186 A 12.436 12.436 0 0 1 47.725 21.026 A 15.595 15.595 0 0 1 47.457 21.633 A 22.727 22.727 0 0 1 47.489 22.827 Q 47.489 24.899 47.095 26.77 A 16.42 16.42 0 0 1 46.568 28.691 Q 45.476 31.891 44.207 34.684 A 13.327 13.327 0 0 1 44.016 35.108 A 11.006 11.006 0 0 1 43.902 35.344 A 4.679 4.679 0 0 0 43.661 35.915 A 4.302 4.302 0 0 0 43.648 35.953 A 7.825 7.825 0 0 0 43.052 36.141 A 6.279 6.279 0 0 0 42.633 36.309 Q 42.176 36.512 41.769 36.766 A 7.339 7.339 0 0 1 40.949 37.219 A 6.406 6.406 0 0 1 40.652 37.35 A 3.055 3.055 0 0 1 39.484 37.578 A 5.527 5.527 0 0 1 37.598 35.057 Q 37.229 34.114 37.076 32.935 A 13.526 13.526 0 0 1 36.971 31.434 Q 36.894 27.066 38.824 20.313 Q 39.18 20.059 39.129 19.551 L 39.129 18.992 L 38.621 18.941 A 2.186 2.186 0 0 0 38.38 18.954 A 1.634 1.634 0 0 0 38.164 18.992 Q 37.989 19.036 37.89 19.343 A 1.612 1.612 0 0 0 37.859 19.449 A 89.673 89.673 0 0 1 35.719 20.939 A 108.538 108.538 0 0 1 34.33 21.861 A 43.283 43.283 0 0 1 30.394 24.146 A 28.177 28.177 0 0 1 26.256 25.873 A 14.077 14.077 0 0 1 23.671 26.462 A 11.945 11.945 0 0 1 22.168 26.559 A 7.705 7.705 0 0 1 15.9 23.584 A 11.948 11.948 0 0 1 14.5 21.379 L 14.043 20.465 L 13.535 21.277 A 5.907 5.907 0 0 0 13.451 21.423 Q 13.33 21.638 13.131 22.019 A 61.568 61.568 0 0 0 13.002 22.268 A 15.572 15.572 0 0 0 12.633 23.035 Q 12.449 23.444 12.265 23.907 A 25.408 25.408 0 0 0 12.24 23.969 A 19.399 19.399 0 0 0 11.58 25.949 Q 11.31 26.931 11.396 27.675 A 2.911 2.911 0 0 0 11.402 27.727 Q 10.793 28.285 10.209 28.996 A 4.373 4.373 0 0 0 9.371 30.621 Q 9.303 30.79 9.303 30.948 A 0.713 0.713 0 0 0 9.32 31.104 A 2.854 2.854 0 0 0 9.398 31.384 A 3.606 3.606 0 0 0 9.473 31.586 Q 9.422 31.941 9.269 32.094 A 2.975 2.975 0 0 1 9.082 32.265 A 3.807 3.807 0 0 1 8.914 32.398 A 15.481 15.481 0 0 0 8.406 32.932 A 3.495 3.495 0 0 0 8.027 33.436 A 3.983 3.983 0 0 0 7.949 33.566 Q 7.848 33.871 7.797 34.201 Q 7.753 34.485 7.709 34.712 A 9.533 9.533 0 0 1 7.695 34.785 A 3.222 3.222 0 0 1 7.686 35.035 Q 7.667 35.276 7.609 35.425 A 0.521 0.521 0 0 1 7.543 35.547 A 49.89 49.89 0 0 1 7.297 36.056 Q 6.964 36.736 6.692 37.23 A 17.246 17.246 0 0 1 6.654 37.299 A 7.403 7.403 0 0 1 6.419 37.695 Q 6.29 37.895 6.165 38.056 A 3.023 3.023 0 0 1 5.918 38.34 A 2.361 2.361 0 0 1 5.613 38.599 Q 5.402 38.749 5.182 38.822 Q 4.824 38.941 4.356 38.949 A 3.968 3.968 0 0 1 4.293 38.949 A 4.973 4.973 0 0 1 4.004 38.94 Q 3.674 38.92 3.199 38.861 A 26.467 26.467 0 0 1 2.719 38.797 Q 1.906 37.934 1.271 36.436 Q 0.637 34.938 0.307 33.236 A 16.551 16.551 0 0 1 0 30.077 A 16.284 16.284 0 0 1 0.002 29.834 A 9.181 9.181 0 0 1 0.161 28.228 A 7.061 7.061 0 0 1 0.586 26.813 Q 0.586 26.768 0.953 25.874 A 135.962 135.962 0 0 1 1.068 25.594 Q 1.551 24.426 2.312 22.623 Q 3.074 20.82 4.039 18.611 A 364.844 364.844 0 0 1 5.969 14.27 Q 6.933 12.137 7.822 10.385 A 41.521 41.521 0 0 1 8.355 9.367 Q 8.88 8.4 9.31 7.758 A 11.177 11.177 0 0 1 9.371 7.668 Q 9.828 6.957 10.209 6.297 A 36.519 36.519 0 0 1 10.583 5.662 A 29.576 29.576 0 0 1 10.945 5.078 A 1717.241 1717.241 0 0 1 11.485 4.196 A 1373.246 1373.246 0 0 1 11.986 3.377 A 9.297 9.297 0 0 1 12.89 2.137 A 8.456 8.456 0 0 1 13.053 1.955 Q 13.637 1.32 14.348 0.838 A 6.294 6.294 0 0 1 15.135 0.387 Q 15.539 0.191 16.011 0.022 A 10.396 10.396 0 0 1 16.074 0 A 9.14 9.14 0 0 1 16.643 0.259 A 6.677 6.677 0 0 1 17.14 0.533 A 3.497 3.497 0 0 1 17.953 1.219 Z M 83.461 38.34 L 82.902 37.934 Q 82.801 37.68 82.648 37.426 A 4.461 4.461 0 0 0 82.391 37.045 A 5.142 5.142 0 0 0 82.293 36.918 Q 81.944 36.482 81.595 35.858 A 11.805 11.805 0 0 1 81.48 35.648 A 9.716 9.716 0 0 1 81.355 34.909 Q 81.229 33.916 81.379 33.186 A 19.501 19.501 0 0 1 81.887 31.23 A 27.922 27.922 0 0 0 82.039 30.759 A 31.113 31.113 0 0 0 82.09 30.596 A 29.484 29.484 0 0 1 82.242 30.115 A 26.425 26.425 0 0 1 82.293 29.961 Q 80.973 29.25 80.312 27.93 A 8.2 8.2 0 0 1 79.816 26.714 A 6.134 6.134 0 0 1 79.551 25.391 A 5.068 5.068 0 0 1 79.7 24.722 Q 79.802 24.384 79.946 24.111 A 2.579 2.579 0 0 1 80.109 23.842 A 3.767 3.767 0 0 1 80.667 23.201 A 3.243 3.243 0 0 1 81.049 22.902 A 4.926 4.926 0 0 1 82.166 22.344 Q 82.75 22.141 83.308 21.988 L 83.969 22.242 Q 84.426 22.699 84.883 22.953 A 0.964 0.964 0 0 0 85.146 22.789 A 0.807 0.807 0 0 0 85.365 22.471 A 5.673 5.673 0 0 0 85.5 22.075 A 7.307 7.307 0 0 0 85.594 21.734 A 19.777 19.777 0 0 1 85.924 20.82 A 7.335 7.335 0 0 1 86.293 20.021 A 8.101 8.101 0 0 1 86.355 19.906 A 2.832 2.832 0 0 1 86.347 19.689 A 2.392 2.392 0 0 1 86.558 18.688 A 1.695 1.695 0 0 0 86.021 18.427 A 1.586 1.586 0 0 0 85.797 18.383 A 0.449 0.449 0 0 1 85.743 18.379 Q 85.645 18.366 85.437 18.317 A 11.25 11.25 0 0 1 85.289 18.281 Q 84.774 17.895 84.531 17.599 A 1.606 1.606 0 0 1 84.451 17.494 A 45.363 45.363 0 0 1 84.123 17.013 A 39.475 39.475 0 0 1 84.019 16.859 Q 83.715 16.199 83.258 15.793 L 82.75 15.438 L 83.004 14.93 A 0.343 0.343 0 0 0 83.105 14.686 A 0.449 0.449 0 0 0 83.105 14.676 Q 83.105 14.523 82.902 14.219 A 4.016 4.016 0 0 1 82.875 14.053 Q 82.817 13.628 82.902 13.457 L 83.004 12.949 A 26.621 26.621 0 0 0 83.099 12.818 Q 83.41 12.384 83.41 12.34 L 83.867 11.883 Q 84.883 11.629 85.873 11.299 Q 86.863 10.969 87.879 10.613 A 129.535 129.535 0 0 0 89.834 9.979 Q 90.824 9.648 91.84 9.395 A 1.92 1.92 0 0 1 92.501 9.086 A 1.845 1.845 0 0 1 92.601 9.064 A 19.805 19.805 0 0 1 92.995 8.995 A 16.039 16.039 0 0 1 93.363 8.937 Q 93.668 8.887 93.922 8.861 A 0.725 0.725 0 0 0 94.058 8.835 Q 94.206 8.791 94.277 8.684 A 61.319 61.319 0 0 1 94.763 8.524 Q 95.191 8.385 95.699 8.227 Q 96.969 7.871 99.051 7.439 A 38.267 38.267 0 0 1 101.26 7.052 A 51.804 51.804 0 0 1 103.723 6.754 L 104.586 6.703 A 1.722 1.722 0 0 0 104.924 6.737 A 1.7 1.7 0 0 0 105.094 6.729 Q 105.348 6.703 105.601 6.703 A 5.868 5.868 0 0 1 106.581 6.778 Q 107.101 6.867 107.494 7.059 A 2.024 2.024 0 0 1 108.496 8.074 A 5.176 5.176 0 0 1 109.064 8.438 A 4.396 4.396 0 0 1 109.308 8.633 A 12.087 12.087 0 0 1 109.813 9.09 A 10.67 10.67 0 0 1 109.969 9.242 A 2.279 2.279 0 0 0 110.222 9.529 A 2.031 2.031 0 0 0 110.299 9.598 Q 110.476 9.75 110.578 9.801 A 5.041 5.041 0 0 1 110.914 10.394 Q 111.216 11.03 111.216 11.586 A 1.906 1.906 0 0 1 111.137 12.137 A 1.985 1.985 0 0 1 110.732 12.574 A 1.578 1.578 0 0 1 109.969 12.898 L 109.41 13.203 Q 108.982 13.164 108.718 13.155 A 4.274 4.274 0 0 0 108.572 13.152 L 107.988 13.152 A 25.919 25.919 0 0 0 106.8 13.182 Q 106.189 13.21 105.506 13.265 A 46.726 46.726 0 0 0 105.043 13.305 Q 103.367 13.457 101.615 13.736 A 39.89 39.89 0 0 0 98.442 14.372 A 36.631 36.631 0 0 0 98.238 14.422 Q 96.785 14.785 95.656 15.189 A 18.615 18.615 0 0 0 95.394 15.285 L 94.48 15.742 A 5.295 5.295 0 0 0 94.322 16.007 Q 94.112 16.383 94.074 16.631 A 53.019 53.019 0 0 1 93.998 17.112 A 47.122 47.122 0 0 1 93.973 17.266 A 3.426 3.426 0 0 0 93.896 17.672 A 5.301 5.301 0 0 1 93.867 17.873 Q 93.847 17.994 93.82 18.129 A 3.867 3.867 0 0 0 92.961 20.463 A 4.883 4.883 0 0 0 92.957 20.668 A 14.93 14.93 0 0 0 92.795 20.952 Q 92.578 21.343 92.502 21.552 A 1.413 1.413 0 0 0 92.5 21.557 A 0.844 0.844 0 0 0 92.454 21.761 Q 92.433 21.969 92.497 22.23 A 2.091 2.091 0 0 0 92.5 22.242 A 4.369 4.369 0 0 0 93.25 22.485 Q 93.622 22.567 93.979 22.567 A 2.988 2.988 0 0 0 94.328 22.547 A 30.315 30.315 0 0 0 96.055 22.293 A 48.325 48.325 0 0 1 98.389 21.947 A 52.52 52.52 0 0 1 98.467 21.937 Q 99.711 21.785 101.031 21.785 L 102.656 21.785 L 102.25 22.191 L 102.504 22.902 A 16.158 16.158 0 0 0 102.645 22.972 Q 102.82 23.057 102.914 23.097 A 1.565 1.565 0 0 0 102.935 23.105 A 1.212 1.212 0 0 1 103.051 23.16 Q 103.11 23.19 103.172 23.23 A 2.247 2.247 0 0 1 103.215 23.258 L 103.469 23.715 A 0.828 0.828 0 0 1 103.65 23.841 Q 103.754 23.933 103.849 24.07 Q 104.027 24.324 104.078 24.832 L 101.996 27.777 L 101.285 27.98 A 4.805 4.805 0 0 0 101.003 27.972 Q 100.637 27.972 100.311 28.031 A 3.04 3.04 0 0 0 99.762 28.184 Q 99.406 28.285 99.051 28.361 A 3.446 3.446 0 0 1 98.538 28.43 A 4.09 4.09 0 0 1 98.289 28.437 A 54.187 54.187 0 0 1 97.802 28.533 Q 97.102 28.666 96.588 28.742 A 272.442 272.442 0 0 1 95.191 28.945 A 19.477 19.477 0 0 0 93.414 29.225 A 9.715 9.715 0 0 0 92.029 29.615 A 8.771 8.771 0 0 0 91.789 29.707 L 91.078 29.707 Q 90.672 29.707 90.24 29.834 A 123.162 123.162 0 0 1 89.827 29.955 A 91.775 91.775 0 0 1 89.453 30.063 A 1.526 1.526 0 0 0 89.275 30.228 Q 89.184 30.328 89.127 30.434 A 0.865 0.865 0 0 0 89.098 30.494 A 13.44 13.44 0 0 0 88.945 30.851 A 15.355 15.355 0 0 0 88.894 30.977 Q 88.709 31.624 88.398 32.061 A 2.491 2.491 0 0 1 88.336 32.145 L 88.336 32.906 A 5.838 5.838 0 0 0 88.153 33.146 Q 87.994 33.368 87.915 33.534 A 0.966 0.966 0 0 0 87.853 33.693 A 4.947 4.947 0 0 1 87.688 34.195 A 4.553 4.553 0 0 1 87.676 34.227 Q 87.591 34.353 87.542 34.463 A 1.071 1.071 0 0 0 87.523 34.506 Q 87.473 34.633 87.473 34.785 A 2.313 2.313 0 0 1 87.743 35.891 Q 87.743 36.19 87.676 36.512 Q 87.371 38.238 85.949 38.898 A 6.098 6.098 0 0 1 85.745 38.911 Q 85.236 38.933 84.959 38.848 A 6.53 6.53 0 0 1 84.493 38.684 A 7.738 7.738 0 0 1 84.273 38.594 Q 83.816 38.391 83.461 38.34 Z M 130.84 28.336 L 129.824 27.98 L 129.621 29.25 L 128.91 29.453 L 128.402 30.063 A 18.08 18.08 0 0 1 127.444 31.561 Q 126.921 32.292 126.371 32.881 Q 125.305 34.023 123.959 34.912 A 19.635 19.635 0 0 1 122.187 35.948 A 24.422 24.422 0 0 1 120.912 36.562 A 221.512 221.512 0 0 1 119.133 37.349 Q 118.191 37.761 117.146 38.209 A 356.889 356.889 0 0 1 117.078 38.238 A 26.382 26.382 0 0 0 116.463 38.173 Q 116.159 38.144 115.89 38.127 A 13.658 13.658 0 0 0 115.58 38.111 A 25.372 25.372 0 0 1 114.816 38.07 A 21.029 21.029 0 0 1 114.387 38.035 Q 113.725 38.035 112.849 37.964 A 33.91 33.91 0 0 1 112 37.883 A 1.315 1.315 0 0 0 111.877 37.634 Q 111.743 37.424 111.543 37.324 A 1.696 1.696 0 0 0 111.321 37.231 Q 111.199 37.19 111.085 37.178 A 0.902 0.902 0 0 0 110.984 37.172 A 2.912 2.912 0 0 1 110.102 36.545 A 2.712 2.712 0 0 1 109.689 35.979 A 21.662 21.662 0 0 1 109.108 34.836 A 25.467 25.467 0 0 1 108.851 34.277 A 21.45 21.45 0 0 0 108.534 33.609 A 17.949 17.949 0 0 0 108.344 33.236 Q 108.09 32.754 107.785 32.246 L 108.648 31.992 L 107.531 30.773 A 1.284 1.284 0 0 0 107.324 30.534 A 1.473 1.473 0 0 0 107.277 30.494 A 1.347 1.347 0 0 1 107.074 30.285 A 1.209 1.209 0 0 1 107.023 30.215 L 106.973 29.402 A 144.72 144.72 0 0 1 106.875 26.506 Q 106.831 24.647 106.846 22.979 A 19.665 19.665 0 0 1 107.049 20.258 A 14.672 14.672 0 0 1 107.633 17.773 L 107.633 17.215 A 43.447 43.447 0 0 1 107.709 16.68 Q 107.819 15.938 107.93 15.397 A 14.925 14.925 0 0 1 107.937 15.361 A 29.606 29.606 0 0 0 108.108 14.471 A 24.765 24.765 0 0 0 108.191 13.965 A 13.194 13.194 0 0 1 108.472 12.505 A 11.232 11.232 0 0 1 108.648 11.883 A 2.47 2.47 0 0 0 109.113 11.737 Q 109.487 11.575 109.715 11.299 Q 110.02 10.928 110.251 10.613 A 10.54 10.54 0 0 0 110.324 10.512 A 3.404 3.404 0 0 1 110.453 10.505 Q 111.059 10.485 111.289 10.715 A 1.604 1.604 0 0 1 111.456 10.914 Q 111.613 11.134 111.771 11.472 A 5.772 5.772 0 0 1 111.797 11.527 A 10.65 10.65 0 0 0 112.043 11.947 Q 112.174 12.158 112.327 12.388 A 18.254 18.254 0 0 0 112.432 12.543 A 2.167 2.167 0 0 0 113.056 13.142 A 3.013 3.013 0 0 0 113.574 13.406 A 5.773 5.773 0 0 0 113.75 13.977 A 6.805 6.805 0 0 0 113.853 14.244 A 89.438 89.438 0 0 1 114.037 14.695 A 113.393 113.393 0 0 1 114.234 15.184 A 19.1 19.1 0 0 1 114.971 16.986 A 7.251 7.251 0 0 1 115.259 18.047 A 5.871 5.871 0 0 1 115.351 18.789 A 7.913 7.913 0 0 0 114.852 19.971 A 10.342 10.342 0 0 0 114.564 21.023 Q 114.285 22.293 114.209 23.588 A 16.295 16.295 0 0 0 114.18 24.545 A 14.471 14.471 0 0 0 114.26 26.076 A 11.173 11.173 0 0 0 114.38 26.918 Q 114.455 27.328 114.558 27.68 A 5.652 5.652 0 0 0 114.691 28.082 L 114.996 28.742 L 115.859 28.641 A 30.267 30.267 0 0 0 117.313 28.215 A 23.564 23.564 0 0 0 118.627 27.752 A 14.098 14.098 0 0 0 120.736 26.732 A 12.942 12.942 0 0 0 120.937 26.609 Q 122.004 25.949 122.969 25.061 A 29.196 29.196 0 0 0 123.959 24.102 A 38.646 38.646 0 0 0 125 23.004 A 12.5 12.5 0 0 0 126.652 20.707 A 14.041 14.041 0 0 0 126.853 20.338 A 20.326 20.326 0 0 0 128.174 17.215 Q 128.707 15.59 128.986 13.99 Q 129.265 12.391 129.367 10.969 A 1.477 1.477 0 0 0 129.808 10.73 Q 130.23 10.389 130.23 9.75 L 130.129 9.191 A 0.583 0.583 0 0 1 130.027 8.861 Q 130.027 8.7 130.111 8.518 A 1.244 1.244 0 0 1 130.129 8.48 A 2.207 2.207 0 0 1 130.959 7.35 A 3.308 3.308 0 0 1 131.551 7.008 A 9.151 9.151 0 0 1 132.669 7.827 A 8.093 8.093 0 0 1 132.998 8.125 A 27.044 27.044 0 0 1 134.05 9.191 A 24.63 24.63 0 0 1 134.191 9.344 A 11.846 11.846 0 0 0 134.307 10.248 Q 134.378 10.669 134.477 11.036 A 6.523 6.523 0 0 0 134.547 11.273 A 21.522 21.522 0 0 0 135.105 12.848 A 69.474 69.474 0 0 1 135.588 14.244 Q 135.816 14.93 135.918 15.895 A 20.82 20.82 0 0 0 135.569 17.164 A 15.424 15.424 0 0 0 135.334 18.332 Q 135.156 19.449 134.953 20.668 A 53.624 53.624 0 0 1 134.178 22.294 Q 133.797 23.058 133.428 23.728 A 32.599 32.599 0 0 1 133.379 23.816 Q 132.617 25.188 132.16 26.203 A 2.488 2.488 0 0 0 131.728 26.787 A 30.149 30.149 0 0 1 131.447 27.297 A 34.35 34.35 0 0 1 131.348 27.473 A 2.259 2.259 0 0 0 131.283 27.577 Q 131.226 27.672 131.158 27.803 A 8.72 8.72 0 0 0 131.094 27.93 A 4.04 4.04 0 0 1 131.021 28.069 Q 130.916 28.26 130.84 28.336 Z M 182.078 28.336 L 181.062 27.98 L 180.859 29.25 L 180.148 29.453 L 179.64 30.063 A 18.08 18.08 0 0 1 178.682 31.561 Q 178.159 32.292 177.609 32.881 Q 176.543 34.023 175.197 34.912 A 19.635 19.635 0 0 1 173.425 35.948 A 24.422 24.422 0 0 1 172.15 36.562 A 221.512 221.512 0 0 1 170.371 37.349 Q 169.43 37.761 168.384 38.209 A 356.889 356.889 0 0 1 168.316 38.238 A 26.382 26.382 0 0 0 167.701 38.173 Q 167.397 38.144 167.128 38.127 A 13.658 13.658 0 0 0 166.818 38.111 A 25.372 25.372 0 0 1 166.055 38.07 A 21.029 21.029 0 0 1 165.625 38.035 Q 164.963 38.035 164.087 37.964 A 33.91 33.91 0 0 1 163.238 37.883 A 1.315 1.315 0 0 0 163.115 37.634 Q 162.981 37.424 162.781 37.324 A 1.696 1.696 0 0 0 162.56 37.231 Q 162.437 37.19 162.324 37.178 A 0.902 0.902 0 0 0 162.223 37.172 A 2.912 2.912 0 0 1 161.34 36.545 A 2.712 2.712 0 0 1 160.928 35.979 A 21.662 21.662 0 0 1 160.346 34.836 A 25.467 25.467 0 0 1 160.09 34.277 A 21.45 21.45 0 0 0 159.772 33.609 A 17.949 17.949 0 0 0 159.582 33.236 Q 159.328 32.754 159.023 32.246 L 159.887 31.992 L 158.769 30.773 A 1.284 1.284 0 0 0 158.562 30.534 A 1.473 1.473 0 0 0 158.515 30.494 A 1.347 1.347 0 0 1 158.312 30.285 A 1.209 1.209 0 0 1 158.262 30.215 L 158.211 29.402 A 144.72 144.72 0 0 1 158.113 26.506 Q 158.069 24.647 158.084 22.979 A 19.665 19.665 0 0 1 158.287 20.258 A 14.672 14.672 0 0 1 158.871 17.773 L 158.871 17.215 A 43.447 43.447 0 0 1 158.947 16.68 Q 159.058 15.938 159.168 15.397 A 14.925 14.925 0 0 1 159.176 15.361 A 29.606 29.606 0 0 0 159.346 14.471 A 24.765 24.765 0 0 0 159.43 13.965 A 13.194 13.194 0 0 1 159.71 12.505 A 11.232 11.232 0 0 1 159.887 11.883 A 2.47 2.47 0 0 0 160.352 11.737 Q 160.725 11.575 160.953 11.299 Q 161.258 10.928 161.489 10.613 A 10.54 10.54 0 0 0 161.562 10.512 A 3.404 3.404 0 0 1 161.692 10.505 Q 162.297 10.485 162.527 10.715 A 1.604 1.604 0 0 1 162.694 10.914 Q 162.852 11.134 163.01 11.472 A 5.772 5.772 0 0 1 163.035 11.527 A 10.65 10.65 0 0 0 163.281 11.947 Q 163.412 12.158 163.565 12.388 A 18.254 18.254 0 0 0 163.67 12.543 A 2.167 2.167 0 0 0 164.295 13.142 A 3.013 3.013 0 0 0 164.812 13.406 A 5.773 5.773 0 0 0 164.988 13.977 A 6.805 6.805 0 0 0 165.092 14.244 A 89.438 89.438 0 0 1 165.276 14.695 A 113.393 113.393 0 0 1 165.473 15.184 A 19.1 19.1 0 0 1 166.209 16.986 A 7.251 7.251 0 0 1 166.497 18.047 A 5.871 5.871 0 0 1 166.59 18.789 A 7.913 7.913 0 0 0 166.091 19.971 A 10.342 10.342 0 0 0 165.803 21.023 Q 165.523 22.293 165.447 23.588 A 16.295 16.295 0 0 0 165.419 24.545 A 14.471 14.471 0 0 0 165.498 26.076 A 11.173 11.173 0 0 0 165.618 26.918 Q 165.694 27.328 165.796 27.68 A 5.652 5.652 0 0 0 165.93 28.082 L 166.234 28.742 L 167.098 28.641 A 30.267 30.267 0 0 0 168.551 28.215 A 23.564 23.564 0 0 0 169.865 27.752 A 14.098 14.098 0 0 0 171.974 26.732 A 12.942 12.942 0 0 0 172.176 26.609 Q 173.242 25.949 174.207 25.061 A 29.196 29.196 0 0 0 175.197 24.102 A 38.646 38.646 0 0 0 176.238 23.004 A 12.5 12.5 0 0 0 177.891 20.707 A 14.041 14.041 0 0 0 178.092 20.338 A 20.326 20.326 0 0 0 179.412 17.215 Q 179.945 15.59 180.224 13.99 Q 180.504 12.391 180.605 10.969 A 1.477 1.477 0 0 0 181.047 10.73 Q 181.469 10.389 181.469 9.75 L 181.367 9.191 A 0.583 0.583 0 0 1 181.265 8.861 Q 181.265 8.7 181.349 8.518 A 1.244 1.244 0 0 1 181.367 8.48 A 2.207 2.207 0 0 1 182.197 7.35 A 3.308 3.308 0 0 1 182.789 7.008 A 9.151 9.151 0 0 1 183.908 7.827 A 8.093 8.093 0 0 1 184.236 8.125 A 27.044 27.044 0 0 1 185.289 9.191 A 24.63 24.63 0 0 1 185.43 9.344 A 11.846 11.846 0 0 0 185.545 10.248 Q 185.616 10.669 185.716 11.036 A 6.523 6.523 0 0 0 185.785 11.273 A 21.522 21.522 0 0 0 186.344 12.848 A 69.474 69.474 0 0 1 186.826 14.244 Q 187.055 14.93 187.156 15.895 A 20.82 20.82 0 0 0 186.807 17.164 A 15.424 15.424 0 0 0 186.572 18.332 Q 186.394 19.449 186.191 20.668 A 53.624 53.624 0 0 1 185.416 22.294 Q 185.035 23.058 184.666 23.728 A 32.599 32.599 0 0 1 184.617 23.816 Q 183.855 25.188 183.398 26.203 A 2.488 2.488 0 0 0 182.967 26.787 A 30.149 30.149 0 0 1 182.686 27.297 A 34.35 34.35 0 0 1 182.586 27.473 A 2.259 2.259 0 0 0 182.521 27.577 Q 182.465 27.672 182.396 27.803 A 8.72 8.72 0 0 0 182.332 27.93 A 4.04 4.04 0 0 1 182.259 28.069 Q 182.154 28.26 182.078 28.336 Z M 77.316 33.77 L 77.215 33.973 A 7.467 7.467 0 0 1 76.732 35.048 A 9.389 9.389 0 0 1 76.326 35.725 Q 75.742 36.613 74.955 37.299 Q 74.168 37.984 73.203 38.441 A 5.287 5.287 0 0 1 71.172 38.949 A 5.944 5.944 0 0 1 70.871 38.872 Q 70.455 38.753 70.283 38.619 A 4.845 4.845 0 0 0 69.801 38.289 A 8.209 8.209 0 0 0 69.655 38.194 A 5.973 5.973 0 0 0 69.521 38.111 Q 69.412 38.046 69.322 37.999 A 2.418 2.418 0 0 0 69.293 37.984 L 68.683 37.73 L 68.887 37.07 Q 68.954 36.801 68.91 36.61 A 0.524 0.524 0 0 0 68.836 36.436 A 1.497 1.497 0 0 0 68.733 36.302 Q 68.562 36.099 68.226 35.801 L 67.922 35.496 A 2.251 2.251 0 0 1 67.768 35.327 A 1.763 1.763 0 0 1 67.668 35.191 L 66.805 34.227 L 68.176 33.871 Q 69.245 33.572 69.72 33.128 A 1.438 1.438 0 0 0 69.877 32.957 Q 70.272 32.445 70.22 31.293 A 6.867 6.867 0 0 0 70.207 31.078 A 6.544 6.544 0 0 0 69.72 30.999 Q 69.02 30.913 68.506 31.027 A 24.176 24.176 0 0 0 67.109 31.383 A 22.662 22.662 0 0 1 65.256 31.814 A 10.078 10.078 0 0 1 64.077 31.963 A 12.748 12.748 0 0 1 63.199 31.992 Q 62.793 31.992 62.437 31.967 Q 62.082 31.941 61.676 31.891 L 61.168 31.789 A 5.84 5.84 0 0 0 61.13 31.597 Q 61.048 31.221 60.967 31.156 A 0.086 0.086 0 0 0 60.965 31.154 A 1.779 1.779 0 0 1 60.838 31.049 A 2.142 2.142 0 0 1 60.762 30.977 Q 60.508 30.723 60.228 30.291 A 1.127 1.127 0 0 1 60.056 29.796 Q 60.036 29.61 60.065 29.398 A 2.231 2.231 0 0 1 60.101 29.199 A 2.66 2.66 0 0 1 59.88 28.685 A 2.197 2.197 0 0 1 59.797 28.285 A 5.69 5.69 0 0 0 59.34 29.555 L 59.137 30.063 L 58.629 30.164 Q 58.527 30.215 58.476 30.393 Q 58.432 30.547 58.427 30.643 A 0.471 0.471 0 0 0 58.426 30.672 L 58.172 31.535 A 2.044 2.044 0 0 1 58.045 31.652 A 1.699 1.699 0 0 1 57.969 31.713 A 1.779 1.779 0 0 0 57.842 31.818 A 2.142 2.142 0 0 0 57.765 31.891 A 9.203 9.203 0 0 1 57.512 32.805 A 26.024 26.024 0 0 1 57.302 33.409 A 22.22 22.22 0 0 1 57.207 33.668 A 14.723 14.723 0 0 0 56.827 34.784 A 13.256 13.256 0 0 0 56.775 34.963 Q 56.637 35.457 56.637 35.935 A 3.275 3.275 0 0 0 56.648 36.207 L 56.445 36.766 A 2.28 2.28 0 0 1 56.117 37.09 A 1.92 1.92 0 0 1 55.887 37.248 A 10.758 10.758 0 0 1 55.277 37.578 A 0.686 0.686 0 0 1 55.174 37.662 Q 55.119 37.699 55.052 37.731 A 1.302 1.302 0 0 1 54.998 37.756 Q 54.851 37.819 54.757 37.864 A 2.714 2.714 0 0 0 54.719 37.883 L 54.566 38.441 L 53.957 38.543 Q 53.442 38.636 53.208 38.687 A 5.85 5.85 0 0 0 53.17 38.695 A 1.98 1.98 0 0 1 52.955 38.73 Q 52.808 38.746 52.637 38.746 L 52.129 38.695 A 38.004 38.004 0 0 1 51.865 38.478 Q 51.581 38.241 51.38 38.063 A 10.179 10.179 0 0 1 51.265 37.959 A 4.46 4.46 0 0 0 50.856 37.628 A 5.574 5.574 0 0 0 50.555 37.426 A 6.455 6.455 0 0 1 50.363 37.157 Q 50.093 36.756 50.049 36.524 A 0.565 0.565 0 0 1 50.047 36.512 A 20.181 20.181 0 0 0 49.996 36.22 A 15.496 15.496 0 0 0 49.945 35.953 A 4.286 4.286 0 0 1 49.889 35.773 Q 49.836 35.585 49.818 35.445 A 0.765 0.765 0 0 0 49.794 35.324 Q 49.76 35.209 49.691 35.141 L 49.031 34.531 L 49.59 34.074 L 49.64 33.211 A 74.584 74.584 0 0 1 51.799 28.234 A 604.169 604.169 0 0 1 54.16 23.359 Q 54.566 22.547 54.947 21.734 Q 55.328 20.922 55.734 20.109 A 0.943 0.943 0 0 1 55.696 19.944 Q 55.683 19.855 55.683 19.754 A 0.97 0.97 0 0 1 55.703 19.566 Q 55.721 19.475 55.755 19.376 A 1.841 1.841 0 0 1 55.785 19.297 A 24.706 24.706 0 0 0 56.175 18.674 Q 56.383 18.332 56.552 18.023 A 13.298 13.298 0 0 0 56.699 17.748 A 106.583 106.583 0 0 0 57.41 16.352 A 38.645 38.645 0 0 1 58.248 14.676 Q 58.68 13.863 59.34 13 L 60.152 12.645 A 7.768 7.768 0 0 0 60.274 12.603 Q 60.381 12.565 60.508 12.518 A 1.184 1.184 0 0 1 60.781 12.452 A 1.518 1.518 0 0 1 60.965 12.441 L 61.726 12.543 A 7.601 7.601 0 0 0 64.215 10.689 A 21.53 21.53 0 0 0 65.26 9.42 Q 65.752 8.776 66.254 8.034 A 35.253 35.253 0 0 0 66.398 7.82 L 66.906 7.109 L 67.566 7.516 A 1.826 1.826 0 0 0 67.765 7.617 Q 67.977 7.712 68.277 7.795 A 45.129 45.129 0 0 1 68.747 7.928 A 53.328 53.328 0 0 1 69.242 8.074 Q 70.156 8.277 70.969 8.531 A 3.68 3.68 0 0 1 71.663 8.825 A 2.815 2.815 0 0 1 72.289 9.293 A 12.824 12.824 0 0 1 72.425 9.674 Q 72.556 10.058 72.612 10.323 A 2.287 2.287 0 0 1 72.644 10.512 A 6.852 6.852 0 0 0 72.797 11.324 Q 72.949 12.188 73.076 13.051 A 17.026 17.026 0 0 1 73.184 13.965 A 23.039 23.039 0 0 1 73.254 14.98 Q 73.508 15.844 73.685 16.682 A 50.451 50.451 0 0 1 74.015 18.383 A 184.218 184.218 0 0 0 74.46 20.457 A 167.767 167.767 0 0 0 74.523 20.744 Q 74.777 21.887 75.183 22.902 A 5.217 5.217 0 0 1 75.325 22.904 Q 75.543 22.91 75.642 22.936 A 0.253 0.253 0 0 1 75.691 22.953 A 2.762 2.762 0 0 1 76.224 22.801 A 14.153 14.153 0 0 1 76.503 22.753 Q 76.67 22.726 76.859 22.699 L 77.418 22.648 L 77.621 23.156 Q 77.672 23.41 78.129 23.664 A 3.431 3.431 0 0 1 78.472 23.707 Q 78.819 23.769 79.029 23.899 A 0.878 0.878 0 0 1 79.094 23.943 A 5.231 5.231 0 0 1 79.62 24.394 A 4.81 4.81 0 0 1 79.652 24.426 Q 79.841 24.615 80.03 24.716 A 1.16 1.16 0 0 0 80.058 24.73 L 80.82 25.035 L 80.414 25.797 A 6.026 6.026 0 0 1 79.706 26.801 A 8.018 8.018 0 0 1 78.967 27.549 A 8.945 8.945 0 0 1 76.859 28.945 A 8.23 8.23 0 0 1 76.92 29.379 A 7.115 7.115 0 0 1 76.935 29.529 A 2.402 2.402 0 0 0 76.997 29.888 A 2.955 2.955 0 0 0 77.062 30.113 A 28.056 28.056 0 0 1 77.316 31.891 A 8.386 8.386 0 0 1 77.367 32.817 A 9.091 9.091 0 0 1 77.316 33.77 Z M 151.152 24.172 L 150.898 24.934 Q 150.543 25.238 150.289 25.67 Q 150.035 26.102 149.781 26.559 A 10.579 10.579 0 0 1 149.223 27.625 A 3.911 3.911 0 0 1 148.461 28.539 A 10.227 10.227 0 0 1 148.302 28.983 Q 148.13 29.428 147.959 29.723 A 3.033 3.033 0 0 1 147.953 29.732 Q 147.782 30.022 147.474 30.37 A 8.162 8.162 0 0 1 147.14 30.723 A 8.708 8.708 0 0 1 146.502 32.432 Q 145.869 33.724 144.754 35.141 A 2.458 2.458 0 0 1 144.496 35.989 A 2.801 2.801 0 0 1 144.474 36.029 A 13.484 13.484 0 0 1 143.992 36.867 A 5.354 5.354 0 0 0 143.852 37.089 A 6.323 6.323 0 0 0 143.789 37.197 Q 143.705 37.344 143.656 37.439 A 2.781 2.781 0 0 0 143.637 37.477 L 143.535 37.984 A 4.202 4.202 0 0 1 143.166 38.49 A 3.597 3.597 0 0 1 142.976 38.695 L 142.418 39.254 Q 142.333 39.381 142.144 39.577 A 6.311 6.311 0 0 1 142.062 39.66 L 141.301 39.965 A 6.445 6.445 0 0 1 139.366 39.409 Q 137.543 38.53 136.901 36.448 A 6.785 6.785 0 0 1 136.781 36.004 L 136.832 35.496 A 4.894 4.894 0 0 0 137 34.998 A 5.345 5.345 0 0 0 137.01 34.963 Q 137.086 34.684 137.187 34.379 A 15.635 15.635 0 0 1 137.67 32.957 A 3.689 3.689 0 0 1 138.508 31.688 Q 138.609 31.332 138.965 30.545 A 15.625 15.625 0 0 1 139.174 30.102 Q 139.527 29.382 140.152 28.24 A 94.919 94.919 0 0 1 140.183 28.184 Q 140.728 27.25 141.093 26.615 A 135.598 135.598 0 0 0 141.301 26.254 A 60.439 60.439 0 0 1 141.494 25.917 Q 141.77 25.441 141.961 25.137 A 7.236 7.236 0 0 0 140.742 23.664 A 32.961 32.961 0 0 1 139.986 22.117 A 27.336 27.336 0 0 1 139.599 21.227 Q 139.211 20.287 138.971 19.511 A 12.979 12.979 0 0 1 138.863 19.145 Q 138.812 18.484 138.711 18.027 A 43.034 43.034 0 0 1 138.609 17.558 A 50.062 50.062 0 0 1 138.508 17.063 A 13.259 13.259 0 0 1 138.254 15.945 A 6.432 6.432 0 0 1 138.154 14.929 A 7.201 7.201 0 0 1 138.152 14.777 A 1.948 1.948 0 0 1 137.969 14.466 A 1.427 1.427 0 0 1 137.848 14.066 L 137.949 13.559 Q 138.101 13.204 138 12.623 A 3.506 3.506 0 0 0 138 12.619 A 16.68 16.68 0 0 0 137.765 11.502 A 18.244 18.244 0 0 0 137.746 11.426 A 124.797 124.797 0 0 0 137.638 10.893 A 164.373 164.373 0 0 0 137.517 10.309 A 4.258 4.258 0 0 1 137.427 9.438 A 4.191 4.191 0 0 1 137.441 9.09 A 2.968 2.968 0 0 1 137.771 7.947 Q 138.051 7.414 138.711 7.008 L 139.574 6.957 Q 140.031 7.211 140.463 7.439 A 13.484 13.484 0 0 1 141.301 7.922 A 32.885 32.885 0 0 1 142.11 8.303 A 29.25 29.25 0 0 1 142.367 8.43 A 6.594 6.594 0 0 1 142.888 8.722 A 8.854 8.854 0 0 1 143.433 9.09 L 143.789 9.801 L 144.449 10.359 L 144.449 10.918 Q 144.495 11.101 144.499 11.409 A 4.672 4.672 0 0 1 144.5 11.477 A 3.33 3.33 0 0 0 144.509 11.732 Q 144.543 12.169 144.703 12.289 L 144.906 12.898 Q 144.906 13.609 145.058 14.244 A 43.973 43.973 0 0 0 145.211 14.86 A 36.735 36.735 0 0 0 145.363 15.438 A 55.103 55.103 0 0 1 145.592 16.304 A 62.207 62.207 0 0 1 145.668 16.605 A 3.13 3.13 0 0 1 145.759 17.311 Q 145.764 17.608 145.719 17.926 A 2.199 2.199 0 0 0 146.006 17.755 A 1.698 1.698 0 0 0 146.226 17.57 Q 146.321 17.476 146.415 17.425 A 0.581 0.581 0 0 1 146.43 17.418 A 0.667 0.667 0 0 0 146.531 17.354 Q 146.582 17.316 146.633 17.266 L 149.629 13.203 L 149.527 12.695 L 150.594 11.68 A 33.1 33.1 0 0 1 151.177 11.11 A 28.551 28.551 0 0 1 151.381 10.918 A 3.916 3.916 0 0 0 151.881 10.356 A 3.484 3.484 0 0 0 152.015 10.156 L 152.574 9.75 A 6.88 6.88 0 0 1 157.009 6.642 A 8.513 8.513 0 0 1 157.195 6.602 L 157.906 6.5 L 158.109 7.16 A 1.819 1.819 0 0 0 158.433 7.709 Q 158.64 7.954 158.947 8.176 A 15.247 15.247 0 0 0 160.293 9.039 L 160.75 9.344 A 4.492 4.492 0 0 1 160.861 9.582 Q 160.96 9.812 160.99 9.974 A 0.716 0.716 0 0 1 161.004 10.105 A 2.186 2.186 0 0 1 160.991 10.347 A 1.634 1.634 0 0 1 160.953 10.563 L 161.156 11.07 A 7.072 7.072 0 0 1 160.885 11.768 Q 160.736 12.094 160.569 12.352 A 2.767 2.767 0 0 1 160.166 12.848 A 21.08 21.08 0 0 1 159.446 13.506 A 17.782 17.782 0 0 1 159.023 13.863 A 103.251 103.251 0 0 1 158.585 14.25 A 77.312 77.312 0 0 1 158.185 14.6 Q 157.805 14.93 157.601 15.438 L 157.246 15.844 A 3.366 3.366 0 0 0 156.517 16.394 A 2.551 2.551 0 0 0 155.875 17.469 L 155.723 18.078 L 155.113 18.078 Q 155.064 18.078 154.894 18.246 A 3.388 3.388 0 0 0 154.885 18.256 A 0.914 0.914 0 0 0 154.798 18.359 Q 154.629 18.589 154.351 19.145 Q 154.045 19.583 153.889 19.756 A 1.228 1.228 0 0 1 153.844 19.805 L 153.59 20.059 A 2.574 2.574 0 0 1 153.493 20.366 A 2.292 2.292 0 0 1 153.463 20.439 A 14.021 14.021 0 0 0 153.402 20.583 Q 153.348 20.712 153.285 20.871 A 10.988 10.988 0 0 0 153.003 21.162 Q 152.589 21.609 152.473 21.861 Q 152.325 22.181 152.13 22.572 A 35.409 35.409 0 0 1 152.117 22.598 A 33.354 33.354 0 0 0 151.827 23.193 A 29.668 29.668 0 0 0 151.736 23.385 A 2.187 2.187 0 0 1 151.538 23.721 Q 151.382 23.943 151.152 24.172 Z M 66.449 18.078 L 66.144 18.586 Q 65.129 19.652 64.189 20.973 A 32.951 32.951 0 0 0 63.32 22.255 A 24.825 24.825 0 0 0 62.59 23.461 L 61.98 24.375 A 13.245 13.245 0 0 0 61.422 25.289 A 3.727 3.727 0 0 1 61.829 25.243 A 3.209 3.209 0 0 1 62.006 25.238 A 2.772 2.772 0 0 0 62.443 25.205 A 2.49 2.49 0 0 0 62.539 25.187 A 92.33 92.33 0 0 0 63.993 25.08 A 68.483 68.483 0 0 0 65.307 24.959 Q 66.541 24.833 68.05 24.532 A 40.888 40.888 0 0 0 68.074 24.527 Q 67.719 23.004 67.312 21.354 A 103.231 103.231 0 0 0 66.449 18.078 Z" vector-effect="non-scaling-stroke"/></g></svg>
