<svg xmlns="http://www.w3.org/2000/svg" width="100%" height="100%" viewBox="0 0 24 24"><path fill="currentColor" d="M13 20q-1.542 0-2.953-.572q-1.41-.572-2.54-1.6l.733-.713q.989.887 2.172 1.386Q11.594 19 13 19q2.92 0 4.96-2.04T20 12q0-2.9-2.05-4.95T13 5q-2.9 0-4.95 2.05T6 12v1.387l2.152-2.152l.713.688L5.5 15.288l-3.365-3.365l.713-.688L5 13.412V12q0-1.665.626-3.119q.626-1.454 1.713-2.542q1.088-1.087 2.542-1.713Q11.334 4 12.999 4q1.664 0 3.12.626q1.454.626 2.542 1.713q1.087 1.088 1.713 2.541q.626 1.454.626 3.118q0 3.329-2.333 5.665Q16.333 20 13 20m-2-4.23q-.376 0-.63-.255q-.255-.254-.255-.63v-3q0-.376.288-.63t.712-.255V9.885q0-.778.554-1.331Q12.223 8 13 8q.777 0 1.331.554q.554.553.554 1.33V11q.425 0 .712.254t.288.63v3q0 .377-.255.63q-.254.255-.63.255zm.885-4.77h2.23V9.892q0-.47-.326-.797q-.326-.326-.789-.326t-.79.326q-.325.326-.325.797z"/></svg>