<?xml version="1.0" standalone="no"?>
<!DOCTYPE svg PUBLIC "-//W3C//DTD SVG 20010904//EN"
 "http://www.w3.org/TR/2001/REC-SVG-20010904/DTD/svg10.dtd">
<svg version="1.0" xmlns="http://www.w3.org/2000/svg"
 width="256.000000pt" height="256.000000pt" viewBox="0 0 256.000000 256.000000"
 preserveAspectRatio="xMidYMid meet">

<g transform="translate(0.000000,256.000000) scale(0.100000,-0.100000)"
fill="#000000" stroke="none">
<path d="M208 2546 c-60 -16 -119 -57 -153 -106 -57 -82 -55 -45 -55 -1164 0
-671 4 -1044 10 -1068 18 -63 71 -130 130 -165 68 -41 95 -42 114 -4 15 29 41
45 56 36 8 -5 47 55 113 169 9 17 17 25 17 18 0 -6 4 -12 10 -12 5 0 18 30 29
68 35 120 35 119 -1 136 -17 9 -34 16 -37 16 -3 0 -5 -44 -5 -97 l2 -98 -8
102 c-7 91 -10 105 -31 123 -26 21 -51 28 -31 8 14 -14 17 -229 3 -256 -5 -9
-14 -36 -20 -60 -8 -29 -17 -42 -29 -42 -10 0 -24 -6 -31 -13 -11 -10 -13 -9
-9 3 3 8 11 41 18 73 9 40 17 56 26 53 10 -4 12 3 7 24 -3 16 -2 42 2 57 l7
28 11 -25 11 -25 4 29 c8 60 -17 185 -43 220 -14 18 -25 38 -25 45 0 7 -18 34
-40 60 -22 26 -40 54 -40 62 0 12 -2 12 -10 -1 -13 -18 -3 -119 16 -174 8 -22
26 -56 40 -75 l25 -36 -35 38 c-66 73 -88 191 -63 340 13 77 13 89 0 94 -26
10 -35 -12 -24 -53 16 -56 14 -72 -4 -48 -15 19 -15 19 -10 -1 3 -11 -5 1 -17
26 -22 43 -25 45 -56 38 -17 -3 -32 -3 -32 1 0 4 15 11 33 14 l32 6 -3 100
c-2 59 -7 98 -13 95 -5 -4 -9 -15 -9 -26 0 -11 -4 -18 -9 -15 -21 13 -46 -98
-46 -199 1 -112 20 -172 72 -222 26 -25 26 -26 3 -12 -14 9 -38 39 -54 68 -22
42 -29 70 -33 135 -7 104 7 167 61 282 l44 92 -6 136 c-11 295 70 532 244 713
80 84 84 90 84 134 0 63 40 138 107 199 103 94 253 149 407 151 45 0 99 4 121
8 24 5 -139 9 -395 9 -321 1 -447 -3 -482 -12z m-143 -1591 c-4 -25 -9 -44
-12 -41 -2 2 -1 25 2 51 4 25 9 44 12 41 2 -2 1 -25 -2 -51z m312 -737 c-3 -8
-6 -5 -6 6 -1 11 2 17 5 13 3 -3 4 -12 1 -19z"/>
<path d="M1440 2539 c135 -34 253 -101 395 -222 65 -55 66 -56 15 -7 -71 67
-143 122 -211 161 -30 17 -47 29 -39 26 8 -2 42 -12 75 -22 154 -44 342 -171
454 -305 116 -139 186 -324 202 -528 9 -121 23 -230 32 -239 7 -7 78 77 72 86
-2 5 1 8 8 7 7 0 36 20 65 46 50 44 52 48 52 97 l0 51 -44 0 c-50 0 -58 6 -49
38 4 18 13 22 50 22 l44 0 -3 303 -3 302 -30 53 c-32 59 -66 91 -129 125 -36
19 -60 22 -214 25 -159 4 -174 3 -188 -14 -13 -18 -14 -18 -8 -1 6 17 -10 18
-307 16 l-314 -1 75 -19z m100 0 c0 -3 14 -3 31 -1 18 3 29 1 26 -4 -3 -5 14
-9 38 -9 24 0 54 -7 68 -14 30 -16 47 -47 21 -37 -8 3 -45 13 -82 22 -37 9
-89 25 -117 34 -44 16 -46 18 -18 17 18 -1 33 -5 33 -8z m984 -521 c3 -13 7
-48 10 -78 4 -30 9 -64 12 -75 7 -26 -29 -65 -61 -65 -32 0 -39 27 -32 122 7
99 14 118 43 118 16 0 25 -7 28 -22z"/>
<path d="M855 2515 c-85 -16 -145 -37 -205 -72 -59 -35 -138 -110 -156 -148
-14 -30 -14 -30 3 -5 35 51 114 118 176 148 100 49 190 66 365 66 158 1 150 9
-18 19 -60 3 -121 0 -165 -8z"/>
<path d="M1308 2473 c7 -3 16 -2 19 1 4 3 -2 6 -13 5 -11 0 -14 -3 -6 -6z"/>
<path d="M659 2332 c-31 -16 -61 -41 -72 -59 l-18 -31 23 6 c12 3 31 14 42 24
20 18 116 58 141 58 8 0 16 4 19 9 6 9 -55 -1 -89 -14 -11 -5 -39 -21 -62 -37
-47 -32 -55 -34 -47 -13 8 21 70 57 124 71 33 9 38 13 19 13 -15 1 -51 -12
-80 -27z"/>
<path d="M811 2356 c4 -4 36 -11 71 -16 36 -5 74 -12 84 -15 10 -3 5 1 -13 10
-33 15 -153 33 -142 21z"/>
<path d="M1615 2320 c10 -11 20 -20 23 -20 3 0 -3 9 -13 20 -10 11 -20 20 -23
20 -3 0 3 -9 13 -20z"/>
<path d="M1000 2310 c0 -6 7 -10 15 -10 8 0 15 2 15 4 0 2 -7 6 -15 10 -8 3
-15 1 -15 -4z"/>
<path d="M943 2303 c9 -2 25 -2 35 0 9 3 1 5 -18 5 -19 0 -27 -2 -17 -5z"/>
<path d="M1920 2225 c13 -14 26 -25 28 -25 3 0 -5 11 -18 25 -13 14 -26 25
-28 25 -3 0 5 -11 18 -25z"/>
<path d="M530 2211 c-21 -31 -54 -101 -46 -101 3 0 20 29 39 65 38 71 40 81 7
36z"/>
<path d="M850 2195 c46 -18 64 -17 25 0 -16 8 -37 14 -45 14 -8 0 1 -7 20 -14z"/>
<path d="M1745 2190 c10 -11 20 -20 23 -20 3 0 -3 9 -13 20 -10 11 -20 20 -23
20 -3 0 3 -9 13 -20z"/>
<path d="M1290 2136 c0 -2 8 -10 18 -17 15 -13 16 -12 3 4 -13 16 -21 21 -21
13z"/>
<path d="M1355 2080 c10 -11 20 -20 23 -20 3 0 -3 9 -13 20 -10 11 -20 20 -23
20 -3 0 3 -9 13 -20z"/>
<path d="M504 2076 c-3 -8 -4 -23 -1 -33 3 -11 5 -7 6 11 1 23 5 27 21 23 11
-3 20 -1 20 4 0 15 -40 10 -46 -5z"/>
<path d="M580 2064 c32 -23 98 -90 128 -129 13 -16 10 -10 -7 15 -33 51 -72
90 -116 114 -29 17 -30 17 -5 0z"/>
<path d="M314 1978 c-126 -167 -195 -433 -173 -673 l6 -70 1 95 c3 156 35 285
108 434 24 49 44 98 44 110 0 12 16 54 35 94 19 40 33 72 30 72 -2 0 -25 -28
-51 -62z"/>
<path d="M1490 1955 c47 -47 87 -85 90 -85 2 0 -33 38 -80 85 -47 47 -87 85
-90 85 -2 0 33 -38 80 -85z"/>
<path d="M510 2018 c0 -9 41 -78 46 -78 3 0 -2 12 -10 28 -21 37 -36 58 -36
50z"/>
<path d="M2110 1908 c0 -2 16 -47 35 -100 42 -118 73 -265 82 -389 3 -51 12
-105 20 -119 7 -14 13 -34 14 -45 0 -11 3 -14 6 -8 2 7 -1 30 -8 50 -16 47
-15 40 -23 144 -9 108 -45 268 -86 382 -26 72 -40 101 -40 85z"/>
<path d="M745 1870 c9 -16 18 -30 21 -30 2 0 -2 14 -11 30 -9 17 -18 30 -21
30 -2 0 2 -13 11 -30z"/>
<path d="M1972 1845 c12 -24 23 -43 26 -41 4 5 -36 86 -43 86 -3 0 5 -20 17
-45z"/>
<path d="M360 1825 c-29 -30 -52 -56 -49 -58 2 -1 28 23 58 55 69 73 63 76 -9
3z"/>
<path d="M610 1836 c0 -2 8 -10 18 -17 15 -13 16 -12 3 4 -13 16 -21 21 -21
13z"/>
<path d="M650 1780 c6 -11 13 -20 16 -20 2 0 0 9 -6 20 -6 11 -13 20 -16 20
-2 0 0 -9 6 -20z"/>
<path d="M707 1783 c-4 -3 -7 -16 -6 -27 0 -19 1 -19 10 3 10 24 8 36 -4 24z"/>
<path d="M790 1781 c0 -6 4 -13 10 -16 6 -3 7 1 4 9 -7 18 -14 21 -14 7z"/>
<path d="M584 1735 c-9 -13 -14 -30 -11 -37 4 -8 6 -7 6 4 1 10 11 26 23 38
12 11 17 20 10 20 -6 0 -19 -11 -28 -25z"/>
<path d="M810 1745 c0 -5 5 -17 10 -25 5 -8 10 -10 10 -5 0 6 -5 17 -10 25 -5
8 -10 11 -10 5z"/>
<path d="M630 1736 c0 -2 8 -10 18 -17 15 -13 16 -12 3 4 -13 16 -21 21 -21
13z"/>
<path d="M710 1725 c-7 -9 -11 -17 -9 -20 3 -2 10 5 17 15 14 24 10 26 -8 5z"/>
<path d="M1770 1726 c0 -3 14 -12 30 -21 17 -9 30 -13 30 -11 0 3 -13 12 -30
21 -16 9 -30 13 -30 11z"/>
<path d="M2030 1715 c0 -5 5 -17 10 -25 5 -8 10 -10 10 -5 0 6 -5 17 -10 25
-5 8 -10 11 -10 5z"/>
<path d="M251 1673 c-21 -45 -61 -165 -61 -182 0 -9 14 24 31 73 16 49 34 96
39 105 17 29 10 -7 -14 -76 -29 -79 -76 -246 -76 -265 1 -29 20 24 65 179 32
111 44 167 38 178 -8 13 -11 12 -22 -12z"/>
<path d="M830 1695 c0 -5 5 -17 10 -25 5 -8 10 -10 10 -5 0 6 -5 17 -10 25 -5
8 -10 11 -10 5z"/>
<path d="M562 1660 c0 -14 2 -19 5 -12 2 6 2 18 0 25 -3 6 -5 1 -5 -13z"/>
<path d="M1910 1647 c0 -3 12 -12 26 -22 15 -9 23 -12 20 -6 -7 11 -46 35 -46
28z"/>
<path d="M900 1614 c0 -6 7 -19 16 -30 14 -18 14 -18 3 6 -14 31 -19 36 -19
24z"/>
<path d="M1970 1606 c0 -2 8 -10 18 -17 15 -13 16 -12 3 4 -13 16 -21 21 -21
13z"/>
<path d="M2039 1548 c21 -24 41 -29 41 -11 0 4 -3 3 -7 0 -3 -4 -18 3 -32 15
l-26 23 24 -27z"/>
<path d="M2443 1437 c-62 -63 -113 -119 -113 -125 0 -7 11 -12 24 -12 21 0 53
31 146 143 4 5 5 -34 2 -85 -2 -51 0 -124 6 -162 9 -57 9 -73 -3 -90 -8 -11
-15 -26 -15 -33 0 -17 42 -12 57 7 15 18 17 94 3 85 -13 -8 -13 87 1 213 6 54
9 115 7 136 l-3 37 -112 -114z"/>
<path d="M563 1465 c0 -44 2 -61 4 -37 2 23 2 59 0 80 -2 20 -4 1 -4 -43z"/>
<path d="M1768 1533 c6 -2 18 -2 25 0 6 3 1 5 -13 5 -14 0 -19 -2 -12 -5z"/>
<path d="M1828 1523 c7 -3 16 -2 19 1 4 3 -2 6 -13 5 -11 0 -14 -3 -6 -6z"/>
<path d="M1890 1505 c46 -18 64 -17 25 0 -16 8 -37 14 -45 14 -8 0 1 -7 20
-14z"/>
<path d="M901 1494 c0 -11 3 -14 6 -6 3 7 2 16 -1 19 -3 4 -6 -2 -5 -13z"/>
<path d="M321 1454 c0 -11 3 -14 6 -6 3 7 2 16 -1 19 -3 4 -6 -2 -5 -13z"/>
<path d="M911 1454 c0 -11 3 -14 6 -6 3 7 2 16 -1 19 -3 4 -6 -2 -5 -13z"/>
<path d="M2321 1413 c0 -42 3 -52 9 -38 12 28 12 83 0 90 -6 4 -10 -16 -9 -52z"/>
<path d="M2040 1456 c0 -2 8 -10 18 -17 15 -13 16 -12 3 4 -13 16 -21 21 -21
13z"/>
<path d="M1890 1416 c-36 -35 -114 -160 -85 -136 9 7 22 28 30 46 7 18 32 53
56 78 49 54 48 61 -1 12z"/>
<path d="M1975 1430 c-3 -6 1 -7 9 -4 18 7 21 14 7 14 -6 0 -13 -4 -16 -10z"/>
<path d="M311 1414 c0 -11 3 -14 6 -6 3 7 2 16 -1 19 -3 4 -6 -2 -5 -13z"/>
<path d="M922 1410 c0 -14 2 -19 5 -12 2 6 2 18 0 25 -3 6 -5 1 -5 -13z"/>
<path d="M961 1404 c0 -11 3 -14 6 -6 3 7 2 16 -1 19 -3 4 -6 -2 -5 -13z"/>
<path d="M1578 1393 c7 -3 16 -2 19 1 4 3 -2 6 -13 5 -11 0 -14 -3 -6 -6z"/>
<path d="M1788 1393 c6 -2 18 -2 25 0 6 3 1 5 -13 5 -14 0 -19 -2 -12 -5z"/>
<path d="M1929 1383 c-13 -16 -12 -17 4 -4 16 13 21 21 13 21 -2 0 -10 -8 -17
-17z"/>
<path d="M301 1364 c0 -11 3 -14 6 -6 3 7 2 16 -1 19 -3 4 -6 -2 -5 -13z"/>
<path d="M932 1360 c0 -14 2 -19 5 -12 2 6 2 18 0 25 -3 6 -5 1 -5 -13z"/>
<path d="M1610 1376 c0 -2 8 -10 18 -17 15 -13 16 -12 3 4 -13 16 -21 21 -21
13z"/>
<path d="M1949 1363 c-13 -16 -12 -17 4 -4 9 7 17 15 17 17 0 8 -8 3 -21 -13z"/>
<path d="M1542 1354 c10 -10 20 -15 24 -12 3 4 -5 12 -18 18 -22 12 -22 12 -6
-6z"/>
<path d="M524 1275 c0 -49 1 -71 3 -48 2 23 2 64 0 90 -2 26 -3 8 -3 -42z"/>
<path d="M573 1295 c0 -38 2 -53 4 -32 2 20 2 52 0 70 -2 17 -4 1 -4 -38z"/>
<path d="M1131 1334 c0 -11 3 -14 6 -6 3 7 2 16 -1 19 -3 4 -6 -2 -5 -13z"/>
<path d="M291 1324 c0 -11 3 -14 6 -6 3 7 2 16 -1 19 -3 4 -6 -2 -5 -13z"/>
<path d="M974 1250 c0 -52 1 -74 3 -47 2 26 2 68 0 95 -2 26 -3 4 -3 -48z"/>
<path d="M1576 1332 c-3 -5 1 -15 8 -21 11 -10 14 -9 12 3 -3 21 -13 29 -20
18z"/>
<path d="M1715 1282 c33 -34 60 -62 61 -62 1 0 4 10 7 21 5 17 3 19 -6 10 -8
-8 -25 2 -67 41 l-55 53 60 -63z"/>
<path d="M942 1295 c0 -16 2 -22 5 -12 2 9 2 23 0 30 -3 6 -5 -1 -5 -18z"/>
<path d="M1460 1316 c0 -2 8 -10 18 -17 15 -13 16 -12 3 4 -13 16 -21 21 -21
13z"/>
<path d="M1630 1300 c14 -11 47 -39 73 -61 27 -23 46 -43 43 -46 -3 -3 -34 15
-70 40 -39 28 -61 38 -53 27 6 -11 15 -20 19 -20 4 0 33 -18 65 -40 34 -24 59
-36 61 -30 5 15 -58 80 -117 120 -25 17 -35 22 -21 10z"/>
<path d="M1152 1301 c-11 -7 -11 -9 0 -14 9 -3 15 1 15 9 0 8 -1 14 -1 14 -1
0 -7 -4 -14 -9z"/>
<path d="M2415 1301 c-3 -6 -8 -77 -12 -158 -3 -81 -10 -156 -15 -165 -5 -10
-20 -18 -33 -18 -33 0 -40 -15 -41 -95 0 -67 0 -68 12 -35 7 19 13 47 13 63 1
43 21 32 21 -12 0 -22 5 -43 10 -46 6 -3 10 -18 11 -33 0 -15 3 -21 6 -14 2 6
14 12 26 12 35 0 107 -32 107 -47 0 -12 -200 -697 -216 -737 -3 -9 -1 -16 5
-16 5 0 15 19 22 43 31 116 200 701 205 708 3 5 10 7 15 4 5 -4 9 51 9 137 l0
143 -43 2 c-24 2 -47 9 -53 18 -9 12 -13 13 -17 3 -3 -11 -13 95 -20 224 -2
31 -3 32 -12 19z"/>
<path d="M281 1284 c0 -11 3 -14 6 -6 3 7 2 16 -1 19 -3 4 -6 -2 -5 -13z"/>
<path d="M1376 1267 c3 -10 9 -15 12 -12 3 3 0 11 -7 18 -10 9 -11 8 -5 -6z"/>
<path d="M2091 1264 c0 -11 3 -14 6 -6 3 7 2 16 -1 19 -3 4 -6 -2 -5 -13z"/>
<path d="M2122 1250 c0 -19 2 -27 5 -17 2 9 2 25 0 35 -3 9 -5 1 -5 -18z"/>
<path d="M2304 1228 c-4 -29 -8 -62 -8 -73 -1 -11 -3 -24 -6 -30 -3 -5 -3 -39
0 -75 5 -60 6 -54 18 79 13 145 11 198 -4 99z"/>
<path d="M1478 1263 c6 -2 18 -2 25 0 6 3 1 5 -13 5 -14 0 -19 -2 -12 -5z"/>
<path d="M1922 1244 c-15 -10 -22 -24 -20 -38 1 -12 -5 -34 -15 -49 -19 -29
-21 -45 -8 -66 7 -10 9 -4 8 20 -1 23 2 33 11 31 6 -1 26 10 43 25 23 21 29
34 27 57 -4 36 -16 41 -46 20z"/>
<path d="M271 1234 c0 -11 3 -14 6 -6 3 7 2 16 -1 19 -3 4 -6 -2 -5 -13z"/>
<path d="M2242 1230 c0 -14 2 -19 5 -12 2 6 2 18 0 25 -3 6 -5 1 -5 -13z"/>
<path d="M1460 1230 c0 -20 12 -36 27 -35 18 0 28 15 10 15 -9 0 -21 8 -26 18
-8 13 -10 14 -11 2z"/>
<path d="M1522 1220 c0 -14 2 -19 5 -12 2 6 2 18 0 25 -3 6 -5 1 -5 -13z"/>
<path d="M2081 1224 c0 -11 3 -14 6 -6 3 7 2 16 -1 19 -3 4 -6 -2 -5 -13z"/>
<path d="M490 1209 c-7 -11 -10 -23 -7 -25 2 -2 9 7 15 21 14 30 7 33 -8 4z"/>
<path d="M953 1180 c0 -30 2 -43 4 -27 2 15 2 39 0 55 -2 15 -4 2 -4 -28z"/>
<path d="M2271 1195 c-1 -22 -4 -51 -8 -65 l-7 -25 -8 25 c-7 21 -7 20 -3 -7
4 -34 -18 -66 -29 -41 -4 9 -5 8 -3 -2 1 -8 -17 -52 -41 -97 -24 -46 -41 -83
-38 -83 3 0 21 31 41 69 39 79 55 95 55 56 0 -14 -4 -24 -9 -21 -5 4 -7 -2 -5
-11 3 -10 -2 -38 -11 -62 -17 -49 -20 -92 -3 -51 13 33 70 247 75 286 3 18 3
40 0 50 -3 11 -5 1 -6 -21z"/>
<path d="M180 1164 c-10 -46 -9 -61 4 -92 l15 -37 0 93 c1 50 -1 92 -3 92 -3
0 -10 -25 -16 -56z"/>
<path d="M2152 1195 c0 -16 2 -22 5 -12 2 9 2 23 0 30 -3 6 -5 -1 -5 -18z"/>
<path d="M2203 1180 c0 -25 2 -35 4 -22 2 12 2 32 0 45 -2 12 -4 2 -4 -23z"/>
<path d="M261 1194 c0 -11 3 -14 6 -6 3 7 2 16 -1 19 -3 4 -6 -2 -5 -13z"/>
<path d="M1320 1200 c-13 -8 -12 -10 3 -10 9 0 17 5 17 10 0 12 -1 12 -20 0z"/>
<path d="M2111 1194 c0 -11 3 -14 6 -6 3 7 2 16 -1 19 -3 4 -6 -2 -5 -13z"/>
<path d="M1160 1185 c-7 -9 -11 -17 -9 -20 3 -2 10 5 17 15 14 24 10 26 -8 5z"/>
<path d="M578 1143 c5 -76 10 -83 11 -15 0 34 -2 62 -7 62 -4 0 -6 -21 -4 -47z"/>
<path d="M1051 1174 c0 -11 3 -14 6 -6 3 7 2 16 -1 19 -3 4 -6 -2 -5 -13z"/>
<path d="M1238 1183 c7 -3 16 -2 19 1 4 3 -2 6 -13 5 -11 0 -14 -3 -6 -6z"/>
<path d="M1415 1180 c4 -7 -3 -9 -22 -5 -22 5 -25 4 -13 -4 12 -9 9 -11 -15
-8 -22 3 -36 -3 -52 -20 l-23 -24 28 -24 c73 -65 161 -24 127 59 -9 20 -20 36
-26 36 -5 0 -7 -5 -4 -10z m5 -96 c0 -8 -5 -12 -10 -9 -6 4 -8 11 -5 16 9 14
15 11 15 -7z"/>
<path d="M1170 1151 c-12 -17 -17 -31 -12 -31 12 0 46 50 39 56 -3 3 -15 -9
-27 -25z"/>
<path d="M1481 1164 c0 -11 3 -14 6 -6 3 7 2 16 -1 19 -3 4 -6 -2 -5 -13z"/>
<path d="M1815 1150 c9 -16 18 -30 21 -30 2 0 -2 14 -11 30 -9 17 -18 30 -21
30 -2 0 2 -13 11 -30z"/>
<path d="M235 1090 c-10 -44 -16 -82 -13 -85 2 -3 12 31 22 76 10 45 16 83 13
85 -2 2 -12 -32 -22 -76z"/>
<path d="M514 1070 c0 -52 1 -74 3 -47 2 26 2 68 0 95 -2 26 -3 4 -3 -48z"/>
<path d="M1270 1135 c-7 -8 -32 -25 -57 -37 -24 -12 -49 -28 -55 -35 -19 -23
89 38 113 63 12 13 20 24 17 24 -3 0 -11 -7 -18 -15z"/>
<path d="M2222 1125 c0 -16 2 -22 5 -12 2 9 2 23 0 30 -3 6 -5 -1 -5 -18z"/>
<path d="M2476 1133 c-6 -14 -5 -15 5 -6 7 7 10 15 7 18 -3 3 -9 -2 -12 -12z"/>
<path d="M1492 1120 c0 -14 2 -19 5 -12 2 6 2 18 0 25 -3 6 -5 1 -5 -13z"/>
<path d="M2191 1123 c-1 -6 -4 -20 -7 -30 -5 -17 -5 -17 6 0 6 10 9 23 6 30
-3 9 -5 9 -5 0z"/>
<path d="M962 1100 c0 -14 2 -19 5 -12 2 6 2 18 0 25 -3 6 -5 1 -5 -13z"/>
<path d="M1716 1100 c3 -14 11 -32 16 -40 6 -10 7 -7 2 10 -3 14 -11 32 -16
40 -6 10 -7 7 -2 -10z"/>
<path d="M451 1094 c0 -11 3 -14 6 -6 3 7 2 16 -1 19 -3 4 -6 -2 -5 -13z"/>
<path d="M1063 1040 c0 -41 2 -58 4 -37 2 20 2 54 0 75 -2 20 -4 3 -4 -38z"/>
<path d="M2075 1073 c-10 -16 -29 -40 -43 -55 -14 -16 -21 -28 -16 -28 9 0 54
57 78 98 14 24 -2 11 -19 -15z"/>
<path d="M1115 1080 c-3 -5 -1 -10 4 -10 6 0 11 5 11 10 0 6 -2 10 -4 10 -3 0
-8 -4 -11 -10z"/>
<path d="M1498 1043 c5 -76 10 -83 11 -15 0 34 -2 62 -7 62 -4 0 -6 -21 -4
-47z"/>
<path d="M2011 1064 c-19 -13 -29 -24 -23 -24 6 0 24 11 39 25 35 31 28 31
-16 -1z"/>
<path d="M441 1054 c0 -11 3 -14 6 -6 3 7 2 16 -1 19 -3 4 -6 -2 -5 -13z"/>
<path d="M750 1067 c0 -3 15 -10 32 -16 18 -6 28 -7 23 -2 -12 10 -55 25 -55
18z"/>
<path d="M942 1045 c-1 -13 -8 -42 -16 -64 -7 -22 -10 -38 -5 -35 13 8 40 107
31 116 -4 4 -9 -3 -10 -17z"/>
<path d="M171 1044 c0 -11 3 -14 6 -6 3 7 2 16 -1 19 -3 4 -6 -2 -5 -13z"/>
<path d="M596 1053 c-3 -4 -6 -25 -6 -47 l0 -41 25 26 c16 16 23 31 20 41 -7
18 -30 30 -39 21z m21 -50 c-16 -16 -17 -15 -17 17 0 32 1 33 17 17 16 -16 16
-18 0 -34z"/>
<path d="M2272 1020 c0 -19 2 -27 5 -17 2 9 2 25 0 35 -3 9 -5 1 -5 -18z"/>
<path d="M432 1000 c0 -19 2 -27 5 -17 2 9 2 25 0 35 -3 9 -5 1 -5 -18z"/>
<path d="M188 995 c2 -14 8 -25 12 -25 10 0 1 38 -10 45 -4 2 -5 -7 -2 -20z"/>
<path d="M533 985 c0 -22 2 -30 4 -17 2 12 2 30 0 40 -3 9 -5 -1 -4 -23z"/>
<path d="M1948 988 c2 -16 9 -28 14 -28 5 0 7 9 3 19 -4 13 0 23 12 29 15 9
14 10 -8 9 -21 -2 -24 -6 -21 -29z"/>
<path d="M158 976 c-3 -15 -1 -29 3 -32 14 -8 22 23 11 42 -8 14 -10 13 -14
-10z"/>
<path d="M1897 993 c-4 -3 -7 -16 -6 -27 0 -19 1 -19 10 3 10 24 8 36 -4 24z"/>
<path d="M712 963 c-15 -16 -24 -25 -19 -21 6 4 26 -6 46 -22 43 -35 92 -48
108 -28 17 21 21 94 4 83 -5 -3 -12 -1 -16 5 -7 11 -54 3 -69 -11 -6 -5 -17
-9 -25 -9 -11 0 -10 4 5 15 10 8 13 15 7 15 -7 0 -25 -12 -41 -27z m138 -53
c0 -5 -4 -10 -10 -10 -5 0 -10 5 -10 10 0 6 5 10 10 10 6 0 10 -4 10 -10z"/>
<path d="M615 967 c-11 -7 -21 -13 -23 -13 -1 -1 5 -37 13 -80 20 -95 54 -164
97 -198 51 -40 16 -31 -39 10 -29 22 -39 27 -26 13 12 -13 22 -27 22 -32 1
-15 33 -57 44 -57 6 0 -2 14 -18 30 -30 31 -24 40 9 15 11 -8 30 -15 43 -15
13 0 29 -10 39 -25 20 -31 11 -49 -17 -34 -12 6 -23 8 -26 6 -8 -9 58 -39 73
-33 10 4 -2 37 -51 136 -36 72 -63 135 -60 141 4 5 1 8 -6 7 -6 -2 -14 3 -17
11 -2 8 0 11 6 7 15 -9 8 22 -8 37 -10 10 -11 9 -5 -3 6 -12 5 -13 -5 -3 -11
10 -11 15 1 29 11 14 11 16 0 10 -10 -7 -12 -3 -6 15 4 16 3 20 -3 11 -5 -8
-12 -13 -16 -13 -20 3 -25 -1 -20 -16 5 -15 4 -16 -5 -3 -7 11 -5 20 11 37 24
26 22 27 -7 10z m25 -88 c10 -17 14 -18 28 -7 15 12 16 11 4 -4 -11 -14 -6
-31 37 -117 l51 -100 -35 21 c-20 11 -46 39 -59 62 -21 36 -56 135 -56 158 0
16 19 8 30 -13z"/>
<path d="M1752 950 c0 -19 2 -27 5 -17 2 9 2 25 0 35 -3 9 -5 1 -5 -18z"/>
<path d="M2276 914 c-4 -37 -5 -69 -2 -71 2 -3 7 25 11 62 4 36 5 68 3 71 -3
2 -8 -25 -12 -62z"/>
<path d="M2262 940 c0 -19 2 -27 5 -17 2 9 2 25 0 35 -3 9 -5 1 -5 -18z"/>
<path d="M1960 940 c-8 -5 -16 -21 -17 -35 -2 -32 12 -24 25 15 6 16 10 30 9
30 -1 0 -9 -5 -17 -10z"/>
<path d="M2023 934 c0 -8 4 -14 8 -14 4 0 10 -8 12 -17 3 -10 4 -6 4 9 -1 28
-24 48 -24 22z"/>
<path d="M543 905 c0 -22 2 -30 4 -17 2 12 2 30 0 40 -3 9 -5 -1 -4 -23z"/>
<path d="M432 905 c0 -16 2 -22 5 -12 2 9 2 23 0 30 -3 6 -5 -1 -5 -18z"/>
<path d="M2070 925 c0 -5 5 -17 10 -25 5 -8 10 -10 10 -5 0 6 -5 17 -10 25 -5
8 -10 11 -10 5z"/>
<path d="M1751 894 c0 -11 3 -14 6 -6 3 7 2 16 -1 19 -3 4 -6 -2 -5 -13z"/>
<path d="M1482 880 c0 -14 2 -19 5 -12 2 6 2 18 0 25 -3 6 -5 1 -5 -13z"/>
<path d="M2251 874 c0 -11 3 -14 6 -6 3 7 2 16 -1 19 -3 4 -6 -2 -5 -13z"/>
<path d="M511 854 c-1 -45 17 -137 31 -149 8 -7 9 -6 3 4 -4 7 -13 50 -20 95
-7 44 -13 67 -14 50z"/>
<path d="M2092 860 c0 -14 2 -19 5 -12 2 6 2 18 0 25 -3 6 -5 1 -5 -13z"/>
<path d="M232 853 c-1 -12 -6 -25 -12 -28 -20 -12 -10 -53 18 -71 18 -11 23
-13 15 -3 -6 8 -13 39 -16 69 -2 30 -4 45 -5 33z m-5 -65 c-3 -7 -5 -2 -5 12
0 14 2 19 5 13 2 -7 2 -19 0 -25z"/>
<path d="M556 820 c3 -25 9 -46 14 -48 5 -2 6 -11 3 -20 -4 -15 -3 -15 7 -2 9
12 10 10 6 -12 -4 -18 -2 -28 5 -28 7 0 10 -3 6 -6 -8 -9 21 -64 34 -64 5 0 3
13 -5 29 -8 15 -17 41 -20 56 -3 15 -12 37 -20 50 -8 12 -20 38 -25 56 -10 33
-11 32 -5 -11z"/>
<path d="M2162 840 c0 -14 2 -19 5 -12 2 6 2 18 0 25 -3 6 -5 1 -5 -13z"/>
<path d="M450 836 c0 -11 40 -86 45 -86 3 0 -4 19 -16 43 -23 45 -29 54 -29
43z"/>
<path d="M1010 783 c0 -5 -11 -22 -25 -37 -13 -14 -20 -26 -15 -26 12 0 53 60
46 67 -3 4 -6 2 -6 -4z"/>
<path d="M2301 764 c0 -11 3 -14 6 -6 3 7 2 16 -1 19 -3 4 -6 -2 -5 -13z"/>
<path d="M2366 734 c-4 -20 -5 -38 -3 -40 3 -3 8 11 11 32 4 20 5 38 3 40 -3
3 -8 -11 -11 -32z"/>
<path d="M2292 710 c0 -14 2 -19 5 -12 2 6 2 18 0 25 -3 6 -5 1 -5 -13z"/>
<path d="M330 703 c19 -9 67 -17 105 -19 l70 -3 -71 8 c-39 5 -80 14 -92 20
-11 6 -27 11 -34 10 -7 0 3 -8 22 -16z"/>
<path d="M510 681 c0 -11 -78 -31 -118 -31 -16 0 -48 7 -71 15 -49 17 -53 13
-9 -9 54 -27 179 -16 208 19 9 10 9 15 1 15 -6 0 -11 -4 -11 -9z"/>
<path d="M2341 619 c-7 -33 -10 -63 -8 -65 2 -3 10 23 16 57 7 33 10 63 8 65
-2 3 -10 -23 -16 -57z"/>
<path d="M2282 650 c0 -14 2 -19 5 -12 2 6 2 18 0 25 -3 6 -5 1 -5 -13z"/>
<path d="M565 637 c8 -13 13 -26 10 -29 -3 -2 2 -5 10 -5 12 0 12 5 -3 29 -9
15 -20 28 -24 28 -5 0 -2 -10 7 -23z"/>
<path d="M365 587 c31 -42 84 -86 132 -111 41 -21 60 -20 66 2 3 12 5 10 6 -7
1 -22 3 -23 56 -16 42 5 55 3 55 -7 0 -7 9 0 19 16 11 17 18 34 15 38 -3 5 -2
8 3 7 4 -1 19 2 33 8 l25 10 -24 8 c-13 4 -41 23 -62 42 -21 20 -39 31 -39 25
0 -5 10 -17 23 -25 16 -12 18 -16 6 -16 -8 -1 -24 6 -35 14 -10 8 -23 14 -29
15 -19 0 49 -39 78 -46 56 -12 9 -28 -91 -31 -55 -1 -86 1 -72 5 22 7 23 9 7
15 -10 4 -31 7 -45 6 -24 0 -25 -1 -7 -9 29 -13 3 -12 -33 1 -18 6 -29 16 -25
22 3 5 1 7 -4 4 -6 -4 -17 0 -24 9 -11 14 -8 15 27 8 21 -3 36 -4 33 0 -4 4
-23 8 -43 10 -20 2 -46 12 -58 22 -16 14 -14 9 7 -19z m278 -104 c-7 -2 -21
-2 -30 0 -10 3 -4 5 12 5 17 0 24 -2 18 -5z"/>
<path d="M2272 600 c0 -14 2 -19 5 -12 2 6 2 18 0 25 -3 6 -5 1 -5 -13z"/>
<path d="M2453 313 c-57 -169 -96 -300 -89 -292 15 15 199 576 194 590 -2 5
-49 -129 -105 -298z"/>
<path d="M488 563 c12 -2 32 -2 45 0 12 2 2 4 -23 4 -25 0 -35 -2 -22 -4z"/>
<path d="M2262 540 c0 -14 2 -19 5 -12 2 6 2 18 0 25 -3 6 -5 1 -5 -13z"/>
<path d="M2264 270 c-33 -149 -57 -270 -53 -270 4 0 10 8 13 18 13 47 107 514
104 517 -2 3 -31 -117 -64 -265z"/>
<path d="M2245 465 c-3 -26 -4 -49 -2 -51 3 -3 8 16 12 41 3 26 4 49 2 51 -3
3 -8 -16 -12 -41z"/>
<path d="M2122 470 c0 -14 2 -19 5 -12 2 6 2 18 0 25 -3 6 -5 1 -5 -13z"/>
<path d="M506 373 c-10 -38 -20 -75 -23 -83 -5 -12 -2 -12 18 2 14 9 23 24 22
36 -2 12 4 39 11 60 13 37 12 52 -3 52 -4 0 -15 -30 -25 -67z"/>
<path d="M593 433 c-27 -4 -34 -10 -47 -50 -9 -26 -14 -48 -12 -50 7 -7 46 54
46 71 0 11 9 16 29 16 17 0 33 5 36 10 3 6 0 9 -7 8 -7 0 -27 -3 -45 -5z"/>
<path d="M2112 380 c0 -19 2 -27 5 -17 2 9 2 25 0 35 -3 9 -5 1 -5 -18z"/>
<path d="M2201 222 c-18 -97 -35 -187 -38 -199 -3 -13 -1 -23 4 -23 9 0 79
388 71 395 -2 3 -19 -75 -37 -173z"/>
<path d="M2052 330 c0 -19 2 -27 5 -17 2 9 2 25 0 35 -3 9 -5 1 -5 -18z"/>
<path d="M2103 290 c0 -25 2 -35 4 -22 2 12 2 32 0 45 -2 12 -4 2 -4 -23z"/>
<path d="M1883 195 c-1 -44 3 -107 7 -140 l7 -60 0 75 c1 41 -3 104 -7 140
l-7 65 0 -80z"/>
<path d="M2037 165 c-5 -55 -10 -115 -14 -133 -3 -19 -1 -32 5 -32 10 0 28
210 20 246 -2 10 -7 -26 -11 -81z"/>
<path d="M1930 122 c0 -75 4 -122 10 -122 9 0 3 228 -6 239 -2 2 -4 -50 -4
-117z"/>
<path d="M2082 138 c-14 -119 -15 -157 -2 -116 9 31 25 218 18 218 -2 0 -10
-46 -16 -102z"/>
<path d="M2537 213 c-2 -10 -12 -35 -21 -56 -10 -22 -13 -36 -7 -33 12 8 46
95 39 102 -3 2 -8 -3 -11 -13z"/>
<path d="M1787 105 c3 -55 7 -102 9 -104 13 -14 13 18 0 105 l-15 99 6 -100z"/>
<path d="M1736 135 c8 -96 15 -135 25 -135 11 0 12 -3 -11 105 -17 82 -18 84
-14 30z"/>
<path d="M1631 134 c0 -11 3 -14 6 -6 3 7 2 16 -1 19 -3 4 -6 -2 -5 -13z"/>
<path d="M1596 75 c7 -55 14 -75 24 -75 5 0 3 19 -5 43 -22 69 -25 74 -19 32z"/>
<path d="M1646 60 c6 -57 10 -67 19 -58 3 3 -1 30 -9 59 l-15 54 5 -55z"/>
<path d="M1506 40 c6 -36 11 -46 18 -39 2 2 -3 20 -10 39 l-14 35 6 -35z"/>
<path d="M370 32 c19 -17 40 -31 45 -31 11 -1 -29 34 -60 50 -11 6 -4 -3 15
-19z"/>
<path d="M440 10 c0 -6 7 -10 15 -10 8 0 15 2 15 4 0 2 -7 6 -15 10 -8 3 -15
1 -15 -4z"/>
</g>
</svg>
